<?xml version="1.0" encoding="UTF-8"?>
<svg id="_圖層_2" data-name="圖層_2" xmlns="http://www.w3.org/2000/svg" xmlns:xlink="http://www.w3.org/1999/xlink" viewBox="0 0 750 750">
  <defs>
    <style>
      .cls-1 {
        fill: none;
      }

      .cls-2 {
        fill: #1982ff;
      }

      .cls-3 {
        clip-path: url(#clippath);
      }
    </style>
    <clipPath id="clippath">
      <rect class="cls-1" width="750" height="750"/>
    </clipPath>
  </defs>
  <g>
    <g class="cls-3">
      <path class="cls-2" d="M645.64,713.08c-95.97-50.63-191.94-100.13-287.91-150-85.39,50.63-169.65,102.77-256.17,151.51-12.09,6.8-31.36,4.16-43.45-1.13-18.51-7.56-30.98-27.58-31.36-47.23,0-8.31,1.13-17,4.91-24.56C133.29,445.95,235.31,250.23,336.57,54.13c9.82-19.27,33.25-27.2,53.28-20.4,10.58,3.4,18.89,11.34,23.8,20.4,103.15,196.1,204.79,393.33,306.05,590.18,3.78,7.18,3.78,17,3.4,24.56-2.27,26.45-23.8,47.23-50.25,49.12-9.45.76-18.51-.76-27.2-4.91M132.16,609.18c-.38.38-.38,1.13-.76,1.51l372.93-222.17-128.84-247.86c-1.51,2.27-3.78,6.05-4.91,8.69-76.32,149.25-154.16,297.74-231.99,446.23-2.64,4.53-4.53,9.07-6.42,13.6M428.01,520.01c64.61,31.36,129.22,62.72,193.45,94.46l-83.12-159.83-119.02,60.45c3.02,1.89,5.67,3.4,8.69,4.91"/>
    </g>
  </g>
</svg>